<svg width="427" height="427" viewBox="0 0 427 427" fill="none" xmlns="http://www.w3.org/2000/svg">
<path fill-rule="evenodd" clip-rule="evenodd" d="M252.139 56.8769C241.294 47.6945 227.544 42.6553 213.333 42.6553C199.123 42.6553 185.373 47.6945 174.528 56.8769L59.6267 151.896C49.1733 160.557 42.6667 174.232 42.6667 189.144V337.304C42.6667 364.333 62.976 384.002 85.3333 384.002H128V314.626C128 266.52 164.992 225.24 213.333 225.24C261.675 225.24 298.667 266.52 298.667 314.626V384.002H341.333C363.691 384.002 384 364.333 384 337.282V189.144C384 174.232 377.515 160.557 367.04 151.896L252.139 56.8769ZM279.317 24.0022L394.219 119C414.912 136.13 426.667 162.072 426.667 189.144V337.304C426.667 385.41 389.675 426.669 341.333 426.669H298.667C287.351 426.669 276.498 422.174 268.497 414.172C260.495 406.171 256 395.318 256 384.002V314.626C256 287.576 235.691 267.906 213.333 267.906C190.976 267.906 170.667 287.576 170.667 314.626V384.002C170.667 395.318 166.171 406.171 158.17 414.172C150.168 422.174 139.316 426.669 128 426.669H85.3333C36.992 426.669 0 385.41 0 337.282V189.144C0 162.072 11.7333 136.13 32.448 119L147.349 24.0022C165.841 8.49771 189.202 0 213.333 0C237.465 0 260.826 8.49771 279.317 24.0022Z" fill="#151514"/>
</svg>
