<svg width="427" height="427" viewBox="0 0 427 427" fill="none" xmlns="http://www.w3.org/2000/svg">
<path fill-rule="evenodd" clip-rule="evenodd" d="M394.219 119L279.317 24.0022C260.826 8.49771 237.465 0 213.333 0C189.202 0 165.841 8.49771 147.349 24.0022L32.448 119C11.7547 136.13 0 162.072 0 189.144V337.304C0 385.41 36.992 426.669 85.3333 426.669H128C139.316 426.669 150.168 422.174 158.17 414.172C166.171 406.171 170.667 395.318 170.667 384.002V314.626C170.667 287.576 190.976 267.906 213.333 267.906C235.691 267.906 256 287.576 256 314.626V384.002C256 395.318 260.495 406.171 268.497 414.172C276.498 422.174 287.351 426.669 298.667 426.669H341.333C389.675 426.669 426.667 385.41 426.667 337.282V189.144C426.667 162.072 414.933 136.13 394.219 119Z" fill="#F9F9F8"/>
</svg>
