<svg width="512" height="512" viewBox="0 0 512 512" fill="none" xmlns="http://www.w3.org/2000/svg">
<path d="M437.036 74.9776C337.061 -24.987 174.965 -24.9981 74.9776 74.9776C-24.9981 174.953 -24.987 337.049 74.9776 437.036C174.953 536.99 337.049 537.001 437.036 437.036C537.001 337.049 536.99 174.965 437.036 74.9776ZM289.388 367.314C289.388 376.17 285.87 384.663 279.608 390.925C273.345 397.188 264.852 400.706 255.996 400.706C247.14 400.706 238.646 397.188 232.384 390.925C226.122 384.663 222.604 376.17 222.604 367.314V233.746C222.604 224.89 226.122 216.396 232.384 210.134C238.646 203.872 247.14 200.354 255.996 200.354C264.852 200.354 273.345 203.872 279.608 210.134C285.87 216.396 289.388 224.89 289.388 233.746V367.314ZM255.406 176.668C236.172 176.668 223.35 163.044 223.75 146.225C223.35 128.594 236.172 115.382 255.796 115.382C275.43 115.382 287.852 128.605 288.264 146.225C288.253 163.044 275.441 176.668 255.406 176.668Z" fill="#6B7C80"/>
</svg>
