<svg width="311" height="503" viewBox="0 0 311 503" fill="none" xmlns="http://www.w3.org/2000/svg">
<path d="M224.018 156.355C224.018 194.424 193.157 225.286 155.087 225.286C117.017 225.286 86.1558 194.424 86.1558 156.355C86.1558 118.285 117.017 87.4228 155.087 87.4228C193.157 87.4228 224.018 118.285 224.018 156.355Z" stroke="#151514" stroke-width="20" stroke-miterlimit="10" stroke-linecap="round" stroke-linejoin="round"/>
<path d="M270.916 66.8698C243.366 31.2699 200.106 10 155.087 10C110.067 10 66.8068 31.2699 39.2569 66.8698C8.187 107.03 2.62702 155.42 18.957 202.709C34.6569 248.169 67.9968 286.079 95.2567 325.149C114.757 353.099 134.257 381.049 153.757 409.009L155.087 410.909L156.417 409.009C175.917 381.049 195.416 353.099 214.916 325.149C242.176 286.079 275.516 248.169 291.216 202.709C307.546 155.42 301.986 107.03 270.916 66.8698Z" stroke="#151514" stroke-width="20" stroke-miterlimit="10" stroke-linecap="round" stroke-linejoin="round"/>
<path d="M63.3369 380.229L20.687 407.169L155.087 492.069L289.486 407.169L246.836 380.229" stroke="#151514" stroke-width="20" stroke-miterlimit="10" stroke-linecap="round" stroke-linejoin="round"/>
</svg>
