<svg width="512" height="438" viewBox="0 0 512 438" fill="none" xmlns="http://www.w3.org/2000/svg">
<path d="M293.6 0.600098H91.789C82.628 0.600098 75.201 8.0271 75.201 17.1881C75.201 26.3491 82.628 33.7761 91.789 33.7761H178.015C159.856 45.1519 143.456 59.1194 129.335 75.2361H16.588C7.427 75.2371 0 82.6651 0 91.8261C0 100.987 7.427 108.414 16.588 108.414H105.338C86.2 140.87 75.2 178.672 75.2 218.999C75.2 265.923 90.079 309.437 115.361 345.076H68.295C59.134 345.076 51.707 352.503 51.707 361.664C51.707 370.825 59.134 378.252 68.295 378.252H144.314C154.681 387.978 165.968 396.675 178.015 404.221H18.299C9.138 404.221 1.711 411.648 1.711 420.809C1.711 429.97 9.138 437.397 18.299 437.397H293.6C414.027 437.397 511.999 339.423 511.999 218.998C511.999 98.5731 414.026 0.600098 293.6 0.600098ZM293.6 404.223C191.468 404.223 108.378 321.133 108.378 219C108.378 116.867 191.468 33.7771 293.6 33.7771C395.732 33.7771 478.822 116.867 478.822 218.999C478.822 321.131 395.733 404.223 293.6 404.223Z" fill="#151514"/>
<path d="M293.6 83.5073C218.889 83.5073 158.107 144.289 158.107 219C158.107 263.553 179.726 303.15 213.022 327.86C213.327 328.118 213.63 328.378 213.959 328.615C214.329 328.884 214.708 329.135 215.091 329.369C237.255 345.18 264.36 354.492 293.6 354.492C322.84 354.492 349.944 345.18 372.109 329.369C372.493 329.135 372.871 328.884 373.241 328.615C373.569 328.376 373.873 328.116 374.178 327.86C407.473 303.15 429.093 263.554 429.093 219C429.093 144.29 368.311 83.5073 293.6 83.5073ZM310.188 118.036C342.56 123.337 369.869 143.877 384.478 172.03L341.522 185.988C334.061 175.189 323.05 167.03 310.189 163.199V118.036H310.188ZM318.645 218.999C318.645 232.809 307.41 244.044 293.6 244.044C279.79 244.044 268.555 232.81 268.555 218.999C268.555 205.189 279.79 193.954 293.6 193.954C307.41 193.954 318.645 205.189 318.645 218.999ZM277.011 118.036V163.199C264.148 167.03 253.139 175.189 245.677 185.988L202.722 172.03C217.332 143.877 244.641 123.336 277.011 118.036ZM220.867 290.886C202.589 272.394 191.284 246.993 191.284 218.999C191.284 213.757 191.682 208.606 192.446 203.574L235.415 217.536C235.403 218.024 235.377 218.508 235.377 218.999C235.377 232.295 239.867 244.557 247.397 254.37L220.867 290.886ZM293.6 321.315C277.099 321.315 261.501 317.385 247.685 310.416L274.221 273.894C280.287 276.042 286.807 277.223 293.6 277.223C300.393 277.223 306.913 276.042 312.979 273.894L339.515 310.416C325.699 317.383 310.101 321.315 293.6 321.315ZM366.332 290.886L339.802 254.371C347.332 244.558 351.822 232.296 351.822 219C351.822 218.509 351.798 218.025 351.784 217.537L394.753 203.575C395.528 208.68 395.916 213.837 395.915 219C395.916 246.993 384.612 272.393 366.332 290.886Z" fill="#151514"/>
</svg>
