<svg width="512" height="438" viewBox="0 0 512 438" fill="none" xmlns="http://www.w3.org/2000/svg">
<path d="M293.601 193.954C279.791 193.954 268.556 205.189 268.556 218.999C268.556 232.809 279.791 244.044 293.601 244.044C307.411 244.044 318.646 232.809 318.646 218.999C318.646 205.189 307.411 193.954 293.601 193.954ZM310.19 118.037V163.2C323.052 167.03 334.062 175.189 341.523 185.988L384.479 172.03C369.87 143.878 342.561 123.336 310.19 118.037ZM394.755 203.574L351.786 217.536C351.798 218.024 351.824 218.509 351.824 218.999C351.824 232.296 347.334 244.557 339.804 254.37L366.334 290.884C384.613 272.392 395.917 246.992 395.917 218.999C395.917 213.757 395.519 208.606 394.755 203.574Z" fill="#F9F9F8"/>
<path d="M293.6 0.600098H91.789C82.628 0.600098 75.201 8.0271 75.201 17.1881C75.201 26.3491 82.628 33.7761 91.789 33.7761H178.015C159.856 45.1519 143.456 59.1194 129.335 75.2361H16.588C7.427 75.2371 0 82.6651 0 91.8261C0 100.987 7.427 108.414 16.588 108.414H105.338C86.2 140.87 75.2 178.672 75.2 218.999C75.2 265.923 90.079 309.437 115.361 345.076H68.295C59.134 345.076 51.707 352.503 51.707 361.664C51.707 370.825 59.134 378.252 68.295 378.252H144.314C154.681 387.978 165.968 396.675 178.015 404.221H18.299C9.138 404.221 1.711 411.648 1.711 420.809C1.711 429.97 9.138 437.397 18.299 437.397H293.6C414.027 437.397 511.999 339.423 511.999 218.998C511.999 98.5731 414.026 0.600098 293.6 0.600098ZM374.178 327.859C373.873 328.117 373.57 328.377 373.241 328.614C372.871 328.883 372.492 329.134 372.109 329.368C349.945 345.179 322.84 354.491 293.6 354.491C264.36 354.491 237.256 345.179 215.091 329.368C214.704 329.132 214.326 328.881 213.959 328.614C213.631 328.375 213.328 328.115 213.022 327.859C179.727 303.149 158.107 263.553 158.107 218.999C158.107 144.288 218.889 83.5061 293.6 83.5061C368.311 83.5061 429.093 144.288 429.093 218.999C429.093 263.554 407.474 303.149 374.178 327.859Z" fill="#F9F9F8"/>
<path d="M202.722 172.029L245.677 185.987C253.14 175.189 264.149 167.03 277.011 163.199V118.036C244.641 123.336 217.332 143.877 202.722 172.029ZM312.979 273.894C306.756 276.1 300.202 277.226 293.6 277.223C286.998 277.226 280.444 276.1 274.221 273.894L247.685 310.416C261.501 317.383 277.099 321.315 293.6 321.315C310.101 321.315 325.699 317.384 339.515 310.416L312.979 273.894ZM235.378 218.999C235.378 218.509 235.402 218.024 235.414 217.536L192.445 203.574C191.671 208.68 191.282 213.836 191.283 218.999C191.283 246.993 202.588 272.393 220.867 290.886L247.397 254.37C239.868 244.558 235.378 232.296 235.378 218.999Z" fill="#F9F9F8"/>
</svg>
