<svg width="512" height="431" viewBox="0 0 512 431" fill="none" xmlns="http://www.w3.org/2000/svg">
<path d="M419.84 368.64H92.16C75.223 368.64 61.44 382.423 61.44 399.36C61.44 416.297 75.223 430.08 92.16 430.08H419.84C436.777 430.08 450.56 416.297 450.56 399.36C450.56 382.423 436.777 368.64 419.84 368.64ZM471.04 61.44C448.451 61.44 430.08 79.811 430.08 102.4C430.08 117.576 438.477 130.703 450.785 137.789C427.09 193.904 390.123 228.331 355.573 225.218C317.153 222.085 285.818 176.66 268.533 100.659C290.692 95.047 307.199 75.079 307.199 51.2C307.199 22.958 284.241 0 255.999 0C227.757 0 204.799 22.958 204.799 51.2C204.799 75.08 221.306 95.048 243.465 100.659C226.18 176.66 194.845 222.085 156.425 225.218C122.019 228.331 84.888 193.904 61.214 137.789C73.522 130.703 81.919 117.575 81.919 102.4C81.919 79.811 63.548 61.44 40.959 61.44C18.371 61.44 0 79.811 0 102.4C0 123.413 15.974 140.575 36.372 142.909L75.817 348.16H436.183L475.627 142.909C496.026 140.575 512 123.413 512 102.4C512 79.811 493.629 61.44 471.04 61.44Z" fill="#6B7C80"/>
</svg>
