<svg width="513" height="467" viewBox="0 0 513 467" fill="none" xmlns="http://www.w3.org/2000/svg">
<path fill-rule="evenodd" clip-rule="evenodd" d="M428.316 466.669H84.5835C38.0926 466.669 0 428.877 0 382.686C0 373.387 1.79965 364.389 4.79906 355.691C6.29877 350.592 8.6983 345.193 11.6977 340.094L182.964 43.7518C188.063 34.7535 194.062 27.255 201.261 21.2562L202.161 20.3563L202.46 19.7565C229.155 -3.03908 267.848 -6.33844 299.042 11.0582C311.939 18.5567 322.437 29.3546 331.735 45.2515L501.202 340.094C508.101 352.691 512 366.789 512.3 381.786V382.386C512.9 404.281 504.202 425.577 488.305 441.774C472.408 457.971 451.112 466.669 428.316 466.669Z" fill="#FF3535"/>
<path fill-rule="evenodd" clip-rule="evenodd" d="M428.317 431.276H84.5837C57.8889 431.276 35.9932 409.68 35.9932 382.986C35.9932 377.587 36.593 372.188 38.6926 367.389L39.2925 365.889C40.1923 363.489 40.7922 361.09 42.5919 358.39L213.858 62.3481C216.558 56.9492 220.157 52.4501 224.656 49.1507L224.956 48.5508L225.556 48.2509C241.153 34.7535 263.349 33.2538 280.745 43.1519C289.444 48.2509 296.642 55.7494 300.541 64.4477L470.308 358.99C474.508 366.789 476.607 374.887 476.607 382.986C476.607 409.68 455.011 431.276 428.317 431.276Z" fill="#FF3535"/>
<path fill-rule="evenodd" clip-rule="evenodd" d="M256.15 257.01C241.152 257.01 228.855 244.713 228.855 229.416V144.532C228.855 129.535 240.853 116.938 256.15 116.938C271.746 116.938 283.744 129.535 283.744 144.532V229.416C283.744 244.413 271.147 257.01 256.15 257.01ZM256.15 350.292C238.453 350.292 223.756 335.595 223.756 317.298C223.756 299.302 238.453 284.905 256.15 284.905C274.146 284.905 288.843 299.302 288.843 317.298C288.843 335.595 274.146 350.292 256.15 350.292Z" fill="white"/>
</svg>
