<svg width="512" height="512" viewBox="0 0 512 512" fill="none" xmlns="http://www.w3.org/2000/svg">
<mask id="mask0_8_74" style="mask-type:luminance" maskUnits="userSpaceOnUse" x="0" y="0" width="512" height="512">
<path d="M0 0.00149536H511.999V512H0V0.00149536Z" fill="white"/>
</mask>
<g mask="url(#mask0_8_74)">
<path d="M394.999 45.0013H54.9999C32.9089 45.0013 15 62.9102 15 85.0012V145.001H434.999V85.0012C434.999 62.9102 417.091 45.0013 394.999 45.0013Z" stroke="black" stroke-width="30" stroke-miterlimit="10" stroke-linecap="round" stroke-linejoin="round"/>
<path d="M98.9995 75.0012V15.0014" stroke="black" stroke-width="30" stroke-miterlimit="10" stroke-linecap="round" stroke-linejoin="round"/>
<path d="M350.999 75.0012V15.0014" stroke="black" stroke-width="30" stroke-miterlimit="10" stroke-linecap="round" stroke-linejoin="round"/>
<path d="M266.999 75.0012V15.0014" stroke="black" stroke-width="30" stroke-miterlimit="10" stroke-linecap="round" stroke-linejoin="round"/>
<path d="M183 75.0012V15.0014" stroke="black" stroke-width="30" stroke-miterlimit="10" stroke-linecap="round" stroke-linejoin="round"/>
<path d="M257 212.501H281.999" stroke="black" stroke-width="30" stroke-miterlimit="10" stroke-linecap="round" stroke-linejoin="round"/>
<path d="M168 212.501H192.999" stroke="black" stroke-width="30" stroke-miterlimit="10" stroke-linecap="round" stroke-linejoin="round"/>
<path d="M345.999 212.501H370.999" stroke="black" stroke-width="30" stroke-miterlimit="10" stroke-linecap="round" stroke-linejoin="round"/>
<path d="M79 280.001H104" stroke="black" stroke-width="30" stroke-miterlimit="10" stroke-linecap="round" stroke-linejoin="round"/>
<path d="M168 280.001H192.999" stroke="black" stroke-width="30" stroke-miterlimit="10" stroke-linecap="round" stroke-linejoin="round"/>
<path d="M257 280.001H281.999" stroke="black" stroke-width="30" stroke-miterlimit="10" stroke-linecap="round" stroke-linejoin="round"/>
<path d="M79 347.5H104" stroke="black" stroke-width="30" stroke-miterlimit="10" stroke-linecap="round" stroke-linejoin="round"/>
<path d="M168 347.5H192.999" stroke="black" stroke-width="30" stroke-miterlimit="10" stroke-linecap="round" stroke-linejoin="round"/>
<path d="M496.998 387C496.998 447.751 447.75 497 386.999 497C326.248 497 276.999 447.751 276.999 387C276.999 326.249 326.248 277.001 386.999 277.001C447.75 277.001 496.998 326.249 496.998 387Z" stroke="black" stroke-width="30" stroke-miterlimit="10" stroke-linecap="round" stroke-linejoin="round"/>
<path d="M386.999 337V387H436.999" stroke="black" stroke-width="30" stroke-miterlimit="10" stroke-linecap="round" stroke-linejoin="round"/>
<path d="M434.999 288.002V145.001H15V385C15 401.568 28.432 415 44.9999 415H280.6" stroke="black" stroke-width="30" stroke-miterlimit="10" stroke-linecap="round" stroke-linejoin="round"/>
</g>
</svg>
