<svg width="488" height="512" viewBox="0 0 488 512" fill="none" xmlns="http://www.w3.org/2000/svg">
<path fill-rule="evenodd" clip-rule="evenodd" d="M306.726 16.5036C306.726 16.5036 324.562 68.2517 324.562 68.2275C339.387 74.5816 353.401 82.6798 366.309 92.3505L420.056 81.92C426.295 80.706 432.725 82.9202 436.916 87.7073C458.711 112.707 475.445 141.701 486.188 173.08C487.203 176.04 487.423 179.215 486.825 182.287C486.227 185.358 484.833 188.219 482.782 190.583C482.782 190.583 446.895 231.899 446.895 231.876C448.8 247.894 448.8 264.081 446.895 280.099L482.782 321.416C484.833 323.779 486.227 326.64 486.825 329.712C487.423 332.783 487.203 335.958 486.188 338.918C475.445 370.297 458.711 399.291 436.916 424.291C432.725 429.078 426.295 431.292 420.056 430.078C420.056 430.078 366.309 419.648 366.332 419.648C353.415 429.31 339.393 437.401 324.562 443.747L306.726 495.495C305.708 498.452 303.932 501.09 301.575 503.146C299.218 505.202 296.363 506.604 293.295 507.211C260.742 513.593 227.259 513.593 194.705 507.211C191.637 506.604 188.782 505.202 186.425 503.146C184.069 501.09 182.292 498.452 181.274 495.495C181.274 495.495 163.438 443.747 163.438 443.771C148.613 437.417 134.599 429.318 121.692 419.647L67.944 430.08C61.7048 431.295 55.275 429.08 51.0838 424.293C29.2888 399.292 12.5553 370.298 1.81222 338.919C0.79714 335.959 0.577382 332.784 1.17494 329.713C1.7725 326.641 3.16641 323.78 5.21715 321.416C5.21715 321.416 41.1052 280.1 41.1052 280.123C39.2001 264.105 39.2001 247.917 41.1052 231.899L5.21808 190.583C3.16743 188.219 1.77351 185.358 1.1758 182.286C0.578091 179.215 0.79755 176.04 1.81222 173.08C12.5556 141.701 29.2887 112.707 51.0828 87.7063C55.2741 82.9193 61.7038 80.705 67.9431 81.92C67.9431 81.92 121.691 92.3505 121.667 92.3505C134.585 82.688 148.607 74.5979 163.437 68.2508L181.273 16.5036C182.291 13.5464 184.068 10.908 186.424 8.85207C188.781 6.7961 191.636 5.39445 194.704 4.78709C227.258 -1.59505 260.741 -1.59505 293.294 4.78709C296.362 5.39412 299.218 6.79565 301.575 8.85165C303.932 10.9076 305.708 13.5461 306.726 16.5036ZM244 150.719C185.894 150.719 138.718 197.894 138.718 256.001C138.718 314.108 185.893 361.282 244 361.282C302.107 361.282 349.281 314.106 349.281 256C349.281 197.894 302.106 150.719 244 150.719ZM244 186.44C282.388 186.44 313.56 217.613 313.56 256C313.56 294.387 282.388 325.56 244 325.56C205.612 325.56 174.44 294.388 174.44 256C174.44 217.612 205.612 186.44 244 186.44Z" fill="#F9F9F8"/>
</svg>
