<svg width="436" height="460" viewBox="0 0 436 460" fill="none" xmlns="http://www.w3.org/2000/svg">
<path fill-rule="evenodd" clip-rule="evenodd" d="M274.192 15.4506L290.171 61.7866C303.451 67.4789 316.005 74.7336 327.568 83.3973L375.717 74.0533C378.468 73.5211 381.311 73.7198 383.961 74.6294C386.612 75.5391 388.977 77.1279 390.821 79.2373C410.346 101.634 425.336 127.607 434.96 155.717C435.87 158.369 436.067 161.213 435.531 163.965C434.996 166.717 433.747 169.28 431.909 171.397L399.76 208.389C401.467 222.747 401.467 237.253 399.76 251.589L431.909 288.603C433.747 290.72 434.996 293.283 435.531 296.035C436.067 298.787 435.87 301.631 434.96 304.283C425.336 332.393 410.346 358.366 390.821 380.763C388.977 382.872 386.612 384.461 383.961 385.371C381.311 386.28 378.468 386.479 375.717 385.947L327.589 376.603C316.017 385.259 303.456 392.506 290.171 398.192L274.192 444.549C273.281 447.199 271.69 449.563 269.579 451.405C267.467 453.247 264.909 454.503 262.16 455.045C232.998 460.762 203.002 460.762 173.84 455.045C171.091 454.503 168.533 453.247 166.421 451.405C164.31 449.563 162.719 447.199 161.808 444.549L145.829 398.213C132.549 392.521 119.995 385.266 108.432 376.603L60.2827 385.947C57.5316 386.479 54.6891 386.28 52.0388 385.371C49.3885 384.461 47.0231 382.872 45.1787 380.763C25.6543 358.366 10.6641 332.393 1.04001 304.283C0.130221 301.631 -0.0668414 298.787 0.468562 296.035C1.00397 293.283 2.25304 290.72 4.09068 288.603L36.24 251.611C34.5334 237.261 34.5334 222.76 36.24 208.411L4.09068 171.397C2.25304 169.28 1.00397 166.717 0.468562 163.965C-0.0668414 161.213 0.130221 158.369 1.04001 155.717C10.6641 127.607 25.6543 101.634 45.1787 79.2373C47.0231 77.1279 49.3885 75.5391 52.0388 74.6294C54.6891 73.7198 57.5316 73.5211 60.2827 74.0533L108.411 83.3973C119.983 74.7413 132.544 67.4939 145.829 61.808L161.808 15.4506C162.719 12.8008 164.31 10.4365 166.421 8.59454C168.533 6.75255 171.091 5.49739 173.84 4.95465C203.002 -0.76239 232.998 -0.76239 262.16 4.95465C264.909 5.49739 267.467 6.75255 269.579 8.59454C271.69 10.4365 273.281 12.8008 274.192 15.4506ZM247.035 34.8213C227.785 31.9521 208.215 31.9521 188.965 34.8213L173.691 79.1093C172.93 81.324 171.691 83.3439 170.061 85.0252C168.432 86.7066 166.451 88.0082 164.261 88.8373C149.191 94.587 135.133 102.703 122.619 112.88C120.805 114.362 118.688 115.426 116.416 115.998C114.145 116.569 111.776 116.634 109.477 116.187L63.4827 107.269C51.3702 122.502 41.5854 139.447 34.448 157.552L65.168 192.923C68.2827 196.507 69.648 201.285 68.88 205.957C66.3199 221.884 66.3199 238.116 68.88 254.043C69.2573 256.355 69.1203 258.721 68.4787 260.974C67.8371 263.227 66.7067 265.311 65.168 267.077L34.448 302.469C41.5904 320.565 51.3749 337.503 63.4827 352.731L109.477 343.813C111.776 343.366 114.145 343.431 116.416 344.002C118.688 344.574 120.805 345.638 122.619 347.12C135.133 357.297 149.191 365.413 164.261 371.163C168.699 372.848 172.155 376.411 173.691 380.891L188.987 425.179C208.229 428.059 227.793 428.059 247.035 425.179L262.309 380.891C263.07 378.676 264.309 376.656 265.939 374.975C267.569 373.293 269.549 371.992 271.739 371.163C286.809 365.413 300.867 357.297 313.381 347.12C315.195 345.638 317.312 344.574 319.584 344.002C321.855 343.431 324.224 343.366 326.523 343.813L372.517 352.731C384.63 337.498 394.415 320.553 401.552 302.448L370.832 267.077C369.293 265.311 368.163 263.227 367.521 260.974C366.88 258.721 366.743 256.355 367.12 254.043C369.68 238.107 369.68 221.893 367.12 205.957C366.743 203.645 366.88 201.279 367.521 199.026C368.163 196.773 369.293 194.689 370.832 192.923L401.552 157.531C394.41 139.435 384.625 122.497 372.517 107.269L326.523 116.187C324.224 116.634 321.855 116.569 319.584 115.998C317.312 115.426 315.195 114.362 313.381 112.88C300.867 102.703 286.809 94.587 271.739 88.8373C269.549 88.0082 267.569 86.7066 265.939 85.0252C264.309 83.3439 263.07 81.324 262.309 79.1093L247.035 34.8213Z" fill="#151514"/>
<path fill-rule="evenodd" clip-rule="evenodd" d="M218 135.685C270.053 135.685 312.315 177.947 312.315 230C312.315 282.053 270.053 324.315 218 324.315C165.947 324.315 123.685 282.053 123.685 230C123.685 177.947 165.947 135.685 218 135.685ZM218 167.685C183.611 167.685 155.685 195.611 155.685 230C155.685 264.389 183.611 292.315 218 292.315C252.389 292.315 280.315 264.389 280.315 230C280.315 195.611 252.389 167.685 218 167.685Z" fill="#151514"/>
</svg>
