<svg xmlns="http://www.w3.org/2000/svg" version="1.1" xmlns:xlink="http://www.w3.org/1999/xlink" width="512" height="512" x="0" y="0" viewBox="0 0 512 512" style="enable-background:new 0 0 512 512" xml:space="preserve" class=""><g><rect width="77.24" height="218.66" x="217.38" y="293.34" rx="38.43" fill="#7e01ff" opacity="1" data-original="#000000" class=""></rect><path d="M411.12 43.35h-49.34c-3.94-7.67-11.91-12.93-21.13-12.93h-22.87c-7.47 0-14.41-3.59-19-9.49C288.87 8.19 273.39-.01 256-.01s-32.87 8.2-42.78 20.94c-4.59 5.9-11.52 9.49-19 9.49h-22.87c-9.22 0-17.19 5.26-21.13 12.93h-49.34c-5.98 0-10.83 4.85-10.83 10.83s4.85 10.83 10.83 10.83h49.34c3.94 7.67 11.91 12.93 21.13 12.93h22.87c7.47 0 14.41 3.59 19 9.49 9.91 12.74 25.39 20.94 42.78 20.94s32.87-8.2 42.78-20.94c4.59-5.9 11.52-9.49 19-9.49h22.87c9.22 0 17.19-5.26 21.13-12.93h49.34c5.98 0 10.83-4.85 10.83-10.83s-4.85-10.83-10.83-10.83zM256 84.2c-16.7 0-30.23-13.53-30.23-30.23S239.3 23.74 256 23.74s30.23 13.53 30.23 30.23S272.7 84.2 256 84.2zM380.04 183.96c-5.16-26.62-29.49-52.37-56.04-58.25-16.12-3.35-38.05-6.63-68-6.69-29.94.05-51.87 3.34-68 6.69-26.55 5.88-50.88 31.62-56.04 58.25-3.24 16.23-7.25 61.47-6.92 91.4-.33 29.93 3.68 75.18 6.92 91.4 5.16 26.63 29.49 52.37 56.04 58.25 3.65.76 7.62 1.51 11.89 2.23v-95.28c0-30.93 25.17-56.1 56.1-56.1s56.1 25.17 56.1 56.1v95.28c4.27-.72 8.24-1.47 11.89-2.23 26.55-5.88 50.88-31.62 56.04-58.25 3.24-16.22 7.25-61.47 6.92-91.4.33-29.93-3.68-75.18-6.92-91.4zm-187.27 45.29c-.71 3.65-4.04 7.18-7.69 7.99-2.21.46-5.22.91-9.33.92-4.11 0-7.11-.46-9.33-.92-3.64-.81-6.98-4.34-7.69-7.99-.44-2.23-.95-11.32-.95-23.61s.5-21.39.95-23.61c.71-3.65 4.04-7.18 7.69-7.99 2.21-.46 5.22-.91 9.33-.92 4.11 0 7.11.46 9.33.92 3.64.81 6.98 4.34 7.69 7.99.44 2.23.95 12.02.95 23.61 0 12.3-.5 21.39-.95 23.61zm160.48 0c-.71 3.65-4.04 7.18-7.69 7.99-2.21.46-5.22.91-9.33.92-4.11 0-7.11-.46-9.33-.92-3.64-.81-6.98-4.34-7.69-7.99-.44-2.23-.95-11.32-.95-23.61s.5-21.39.95-23.61c.71-3.65 4.04-7.18 7.69-7.99 2.21-.46 5.22-.91 9.33-.92 4.11 0 7.11.46 9.33.92 3.64.81 6.98 4.34 7.69 7.99.44 2.23.95 12.02.95 23.61 0 12.3-.5 21.39-.95 23.61z" fill="#7e01ff" opacity="1" data-original="#000000" class=""></path></g></svg>