<svg width="394" height="427" viewBox="0 0 394 427" fill="none" xmlns="http://www.w3.org/2000/svg">
<g filter="url(#filter0_d_19_88)">
<path d="M194 2C143.099 2.06773 94.3026 22.318 58.3103 58.3103C22.318 94.3026 2.06773 143.099 2 194C2 331.84 186.419 416.759 186.419 416.759C186.419 416.759 189.877 419 191.939 419C194 419 197.459 416.759 197.459 416.759C197.459 416.759 386 331.84 386 194C385.932 143.099 365.682 94.3026 329.69 58.3103C293.697 22.318 244.901 2.06773 194 2ZM194 282C176.595 282 159.581 276.839 145.11 267.169C130.638 257.5 119.359 243.756 112.699 227.676C106.038 211.596 104.295 193.902 107.691 176.832C111.086 159.762 119.468 144.082 131.775 131.775C144.082 119.468 159.762 111.086 176.832 107.691C193.902 104.295 211.596 106.038 227.676 112.699C243.756 119.359 257.5 130.638 267.169 145.11C276.839 159.581 282 176.595 282 194C281.985 217.334 272.709 239.709 256.209 256.209C239.709 272.709 217.334 281.985 194 282Z" fill="white"/>
</g>
<path d="M194.047 343.094C113.064 343.094 47 277.03 47 196.047C47 115.064 113.064 49 194.047 49C275.03 49 341.094 115.064 341.094 196.047C341.094 277.03 275.029 343.094 194.047 343.094Z" fill="#FF3535"/>
<path d="M262.538 129.983C249.752 119.327 230.572 114 202.868 114H140V290.883H179.426V241.867H203.933C230.573 241.867 249.753 236.539 262.539 226.949C275.326 216.294 281.719 200.31 281.719 178.999C281.718 156.622 275.325 140.638 262.538 129.983ZM233.768 199.244C229.506 204.572 219.916 206.703 207.129 206.703H180.491V147.033H202.868C215.654 147.033 225.244 149.163 231.638 153.426C238.031 157.689 241.228 165.147 241.228 174.737C241.228 186.458 238.031 193.917 233.768 199.244Z" fill="white"/>
<defs>
<filter id="filter0_d_19_88" x="0" y="0" width="394" height="427" filterUnits="userSpaceOnUse" color-interpolation-filters="sRGB">
<feFlood flood-opacity="0" result="BackgroundImageFix"/>
<feColorMatrix in="SourceAlpha" type="matrix" values="0 0 0 0 0 0 0 0 0 0 0 0 0 0 0 0 0 0 127 0" result="hardAlpha"/>
<feOffset dx="3" dy="3"/>
<feGaussianBlur stdDeviation="2.5"/>
<feComposite in2="hardAlpha" operator="out"/>
<feColorMatrix type="matrix" values="0 0 0 0 0 0 0 0 0 0 0 0 0 0 0 0 0 0 0.25 0"/>
<feBlend mode="normal" in2="BackgroundImageFix" result="effect1_dropShadow_19_88"/>
<feBlend mode="normal" in="SourceGraphic" in2="effect1_dropShadow_19_88" result="shape"/>
</filter>
</defs>
</svg>
